<svg xmlns="http://www.w3.org/2000/svg" viewBox="0 0 43 45"><g transform="translate(0.059 0.419)"><ellipse cx="21" cy="20.5" rx="21" ry="20.5" transform="translate(-0.059 3.581)" fill="#fff" opacity="0.15"/><ellipse cx="20.5" cy="21" rx="20.5" ry="21" transform="translate(1.941 -0.419)" fill="#fff" opacity="0.03"/><circle cx="17" cy="17" r="17" transform="translate(3.941 3.581)" fill="#fff"/><g transform="translate(0.941 0.581)" fill="none" stroke="#fff" stroke-width="1" opacity="0.06"><circle cx="21" cy="21" r="21" stroke="none"/><circle cx="21" cy="21" r="20.5" fill="none"/></g><path d="M16.24,12.807v1.972a1.315,1.315,0,0,1-1.433,1.315,13.008,13.008,0,0,1-5.673-2.018,12.817,12.817,0,0,1-3.944-3.944,13.008,13.008,0,0,1-2.018-5.7A1.315,1.315,0,0,1,4.481,3H6.453A1.315,1.315,0,0,1,7.768,4.13a8.44,8.44,0,0,0,.46,1.847,1.315,1.315,0,0,1-.3,1.387L7.1,8.2a10.517,10.517,0,0,0,3.944,3.944l.835-.835a1.315,1.315,0,0,1,1.387-.3,8.44,8.44,0,0,0,1.847.46,1.315,1.315,0,0,1,1.131,1.334Z" transform="translate(11.11 11.581)" fill="#5be0e7"/></g></svg>