<svg xmlns="http://www.w3.org/2000/svg" viewBox="0 0 43 45"><g transform="translate(0.059 0.419)"><ellipse cx="21" cy="20.5" rx="21" ry="20.5" transform="translate(-0.059 3.581)" fill="#fff" opacity="0.15"/><ellipse cx="20.5" cy="21" rx="20.5" ry="21" transform="translate(1.941 -0.419)" fill="#fff" opacity="0.03"/><circle cx="17" cy="17" r="17" transform="translate(3.941 3.581)" fill="#fff"/><g transform="translate(0.941 0.581)" fill="none" stroke="#fff" stroke-width="1" opacity="0.06"><circle cx="21" cy="21" r="21" stroke="none"/><circle cx="21" cy="21" r="20.5" fill="none"/></g><path d="M4.666,13.587C.73,7.882,0,7.3,0,5.2a5.2,5.2,0,0,1,10.4,0c0,2.1-.73,2.682-4.666,8.387a.65.65,0,0,1-1.069,0ZM5.2,7.367A2.167,2.167,0,1,0,3.033,5.2,2.167,2.167,0,0,0,5.2,7.367Z" transform="translate(15.741 14.314)" fill="#5be0e7"/></g></svg>