<svg xmlns="http://www.w3.org/2000/svg"  viewBox="0 0 43 45"><g transform="translate(0.059 0.419)"><ellipse cx="21" cy="20.5" rx="21" ry="20.5" transform="translate(-0.059 3.581)" fill="#fff" opacity="0.15"/><ellipse cx="20.5" cy="21" rx="20.5" ry="21" transform="translate(1.941 -0.419)" fill="#fff" opacity="0.03"/><circle cx="17" cy="17" r="17" transform="translate(3.941 3.581)" fill="#fff"/><g transform="translate(0.941 0.581)" fill="none" stroke="#fff" stroke-width="1" opacity="0.06"><circle cx="21" cy="21" r="21" stroke="none"/><circle cx="21" cy="21" r="20.5" fill="none"/></g><path d="M15.522,6H4.391A1.39,1.39,0,0,0,3.007,7.391L3,15.74a1.4,1.4,0,0,0,1.391,1.391H15.522a1.4,1.4,0,0,0,1.391-1.391V7.391A1.4,1.4,0,0,0,15.522,6Zm0,2.783L9.957,12.261,4.391,8.783V7.391L9.957,10.87l5.565-3.478Z" transform="translate(10.941 9.081)" fill="#5be0e7"/></g></svg>