<svg xmlns="http://www.w3.org/2000/svg" viewBox="0 0 12.533 12.533"><path d="M9.139,0H3.392A3.4,3.4,0,0,0,0,3.393V9.14a3.4,3.4,0,0,0,3.393,3.392H9.139A3.4,3.4,0,0,0,12.532,9.14V3.393A3.4,3.4,0,0,0,9.139,0ZM6.265,9.693A3.427,3.427,0,1,1,9.692,6.266,3.431,3.431,0,0,1,6.265,9.693ZM9.774,3.648a1.013,1.013,0,1,1,1.013-1.013A1.014,1.014,0,0,1,9.774,3.648Zm0,0" transform="translate(0.001 0)" fill="#012e30"/><path d="M148.712,146.02a2.692,2.692,0,1,0,2.692,2.692A2.7,2.7,0,0,0,148.712,146.02Zm0,0" transform="translate(-142.446 -142.446)" fill="#012e30"/><path d="M388.27,96.3a.278.278,0,1,0,.278.278A.278.278,0,0,0,388.27,96.3Zm0,0" transform="translate(-378.495 -93.943)" fill="#012e30"/></svg>