<svg xmlns="http://www.w3.org/2000/svg" viewBox="0 0 12.846 12.277"><g transform="translate(0 0)"><rect width="2.76" height="8.288" transform="translate(0.159 3.989)" fill="#012e30"/><path d="M159.132,140.28a2.97,2.97,0,0,0-2.3-.949,3.315,3.315,0,0,0-.958.13,2.173,2.173,0,0,0-.728.364,3.116,3.116,0,0,0-.8.877v-1.178H151.6l.008.4q.008.4.008,2.476t-.017,5.411h2.752v-4.625a2.02,2.02,0,0,1,.092-.677,1.777,1.777,0,0,1,.531-.715,1.354,1.354,0,0,1,.882-.289,1.19,1.19,0,0,1,1.058.5,2.42,2.42,0,0,1,.339,1.376v4.432H160v-4.75A3.982,3.982,0,0,0,159.132,140.28Z" transform="translate(-147.156 -135.534)" fill="#012e30"/><path d="M1.556,9.708a1.574,1.574,0,0,0-1.125.406A1.347,1.347,0,0,0,0,11.138a1.371,1.371,0,0,0,.418,1.02,1.509,1.509,0,0,0,1.1.41h.017a1.576,1.576,0,0,0,1.133-.41,1.324,1.324,0,0,0,.422-1.02,1.4,1.4,0,0,0-.427-1.024A1.529,1.529,0,0,0,1.556,9.708Z" transform="translate(0 -9.708)" fill="#012e30"/></g></svg>