<svg xmlns="http://www.w3.org/2000/svg" viewBox="0 0 13.159 10.692"><g transform="translate(0 0)"><path d="M13.16,49.266a5.625,5.625,0,0,1-1.554.426A2.683,2.683,0,0,0,12.792,48.2a5.392,5.392,0,0,1-1.711.653A2.7,2.7,0,0,0,6.414,50.7a2.778,2.778,0,0,0,.063.615A7.636,7.636,0,0,1,.916,48.492,2.7,2.7,0,0,0,1.745,52.1a2.664,2.664,0,0,1-1.219-.332v.03a2.71,2.71,0,0,0,2.161,2.651,2.693,2.693,0,0,1-.707.089,2.385,2.385,0,0,1-.511-.046,2.724,2.724,0,0,0,2.521,1.879A5.421,5.421,0,0,1,.646,57.518,5.052,5.052,0,0,1,0,57.481a7.6,7.6,0,0,0,4.139,1.211,7.626,7.626,0,0,0,7.679-7.677c0-.119,0-.234-.01-.349A5.382,5.382,0,0,0,13.16,49.266Z" transform="translate(0 -48)" fill="#012e30"/></g></svg>